<?xml version="1.0" encoding="UTF-8" standalone="no"?>
<!-- Created with Inkscape (http://www.inkscape.org/) -->

<svg
   width="21.079353mm"
   height="15.329958mm"
   viewBox="0 0 21.079353 15.329958"
   version="1.1"
   id="svg871"
   inkscape:version="1.2 (dc2aeda, 2022-05-15)"
   sodipodi:docname="crown-silver.svg"
   xmlns:inkscape="http://www.inkscape.org/namespaces/inkscape"
   xmlns:sodipodi="http://sodipodi.sourceforge.net/DTD/sodipodi-0.dtd"
   xmlns="http://www.w3.org/2000/svg"
   xmlns:svg="http://www.w3.org/2000/svg">
  <sodipodi:namedview
     id="namedview873"
     pagecolor="#ffffff"
     bordercolor="#666666"
     borderopacity="1.0"
     inkscape:showpageshadow="2"
     inkscape:pageopacity="0.0"
     inkscape:pagecheckerboard="0"
     inkscape:deskcolor="#d1d1d1"
     inkscape:document-units="mm"
     showgrid="false"
     inkscape:zoom="4.1161782"
     inkscape:cx="33.647717"
     inkscape:cy="29.882088"
     inkscape:window-width="1680"
     inkscape:window-height="940"
     inkscape:window-x="0"
     inkscape:window-y="25"
     inkscape:window-maximized="0"
     inkscape:current-layer="g454" />
  <defs
     id="defs868" />
  <g
     inkscape:label="Layer 1"
     inkscape:groupmode="layer"
     id="layer1"
     transform="translate(-126.63406,-42.674004)">
    <g
       id="g454"
       transform="matrix(0.26458333,0,0,0.26458333,110.12141,42.462337)">
      <polygon
         class="cls-3"
         points="115.38,15.29 115.38,29.74 137.59,29.74 137.59,53.38 66.64,53.38 66.64,29.74 88.58,29.74 88.58,15.29 96.83,15.29 96.83,8.05 107.83,8.05 107.83,15.29 "
         id="polygon364"
         style="fill:#afafaf;fill-opacity:1" />
      <g
         id="g430">
        <rect
           class="cls-5"
           x="62.41"
           y="51.5"
           width="7.2399998"
           height="7.2399998"
           id="rect366"
           style="fill:#161919" />
        <rect
           class="cls-5"
           x="69.660004"
           y="51.5"
           width="7.2399998"
           height="7.2399998"
           id="rect368"
           style="fill:#161919" />
        <rect
           class="cls-5"
           x="76.900002"
           y="51.5"
           width="7.2399998"
           height="7.2399998"
           id="rect370"
           style="fill:#161919" />
        <rect
           class="cls-5"
           x="84.139999"
           y="51.5"
           width="7.2399998"
           height="7.2399998"
           id="rect372"
           style="fill:#161919" />
        <rect
           class="cls-5"
           x="91.389999"
           y="51.5"
           width="7.2399998"
           height="7.2399998"
           id="rect374"
           style="fill:#161919" />
        <rect
           class="cls-5"
           x="98.629997"
           y="51.5"
           width="7.2399998"
           height="7.2399998"
           id="rect376"
           style="fill:#161919" />
        <rect
           class="cls-5"
           x="105.87"
           y="51.5"
           width="7.2399998"
           height="7.2399998"
           id="rect378"
           style="fill:#161919" />
        <rect
           class="cls-5"
           x="113.11"
           y="51.5"
           width="7.2399998"
           height="7.2399998"
           id="rect380"
           style="fill:#161919" />
        <rect
           class="cls-5"
           x="120.36"
           y="51.5"
           width="7.2399998"
           height="7.2399998"
           id="rect382"
           style="fill:#161919" />
        <rect
           class="cls-5"
           x="127.6"
           y="51.5"
           width="7.2399998"
           height="7.2399998"
           id="rect384"
           style="fill:#161919" />
        <rect
           class="cls-5"
           x="134.84"
           y="51.5"
           width="7.2399998"
           height="7.2399998"
           id="rect386"
           style="fill:#161919" />
        <rect
           class="cls-5"
           x="134.84"
           y="44.259998"
           width="7.2399998"
           height="7.2399998"
           id="rect388"
           style="fill:#161919" />
        <rect
           class="cls-5"
           x="134.84"
           y="37.009998"
           width="7.2399998"
           height="7.2399998"
           id="rect390"
           style="fill:#161919" />
        <rect
           class="cls-5"
           x="134.84"
           y="29.77"
           width="7.2399998"
           height="7.2399998"
           id="rect392"
           style="fill:#161919" />
        <rect
           class="cls-5"
           x="134.84"
           y="22.530001"
           width="7.2399998"
           height="7.2399998"
           id="rect394"
           style="fill:#161919" />
        <rect
           class="cls-5"
           x="134.84"
           y="15.29"
           width="7.2399998"
           height="7.2399998"
           id="rect396"
           style="fill:#161919" />
        <rect
           class="cls-5"
           x="127.6"
           y="22.530001"
           width="7.2399998"
           height="7.2399998"
           id="rect398"
           style="fill:#161919" />
        <rect
           class="cls-5"
           x="120.36"
           y="29.77"
           width="7.2399998"
           height="7.2399998"
           id="rect400"
           style="fill:#161919" />
        <rect
           class="cls-5"
           x="113.11"
           y="22.530001"
           width="7.2399998"
           height="7.2399998"
           id="rect402"
           style="fill:#161919" />
        <rect
           class="cls-5"
           x="113.11"
           y="15.29"
           width="7.2399998"
           height="7.2399998"
           id="rect404"
           style="fill:#161919" />
        <rect
           class="cls-5"
           x="62.41"
           y="44.259998"
           width="7.2399998"
           height="7.2399998"
           transform="rotate(180,66.035,47.88)"
           id="rect406"
           style="fill:#161919" />
        <rect
           class="cls-5"
           x="62.41"
           y="37.009998"
           width="7.2399998"
           height="7.2399998"
           transform="rotate(180,66.035,40.635)"
           id="rect408"
           style="fill:#161919" />
        <rect
           class="cls-5"
           x="62.41"
           y="29.77"
           width="7.2399998"
           height="7.2399998"
           transform="rotate(180,66.035,33.395)"
           id="rect410"
           style="fill:#161919" />
        <rect
           class="cls-5"
           x="62.41"
           y="22.530001"
           width="7.2399998"
           height="7.2399998"
           transform="rotate(180,66.035,26.15)"
           id="rect412"
           style="fill:#161919" />
        <rect
           class="cls-5"
           x="62.41"
           y="15.29"
           width="7.2399998"
           height="7.2399998"
           transform="rotate(180,66.035,18.905)"
           id="rect414"
           style="fill:#161919" />
        <rect
           class="cls-5"
           x="69.660004"
           y="22.530001"
           width="7.2399998"
           height="7.2399998"
           transform="rotate(180,73.28,26.15)"
           id="rect416"
           style="fill:#161919" />
        <rect
           class="cls-5"
           x="76.900002"
           y="29.77"
           width="7.2399998"
           height="7.2399998"
           transform="rotate(180,80.52,33.395)"
           id="rect418"
           style="fill:#161919" />
        <rect
           class="cls-5"
           x="84.139999"
           y="22.530001"
           width="7.2399998"
           height="7.2399998"
           transform="rotate(180,87.765,26.15)"
           id="rect420"
           style="fill:#161919" />
        <rect
           class="cls-5"
           x="84.139999"
           y="15.29"
           width="7.2399998"
           height="7.2399998"
           transform="rotate(180,87.765,18.905)"
           id="rect422"
           style="fill:#161919" />
        <rect
           class="cls-5"
           x="91.389999"
           y="8.04"
           width="7.2399998"
           height="7.2399998"
           transform="rotate(180,95.005,11.665)"
           id="rect424"
           style="fill:#161919" />
        <rect
           class="cls-5"
           x="98.629997"
           y="0.80000001"
           width="7.2399998"
           height="7.2399998"
           transform="rotate(180,102.25,4.42)"
           id="rect426"
           style="fill:#161919" />
        <rect
           class="cls-5"
           x="105.87"
           y="8.04"
           width="7.2399998"
           height="7.2399998"
           id="rect428"
           style="fill:#161919" />
      </g>
      <path
         id="rect434"
         style="fill:#c8c8c8;fill-opacity:1"
         class="cls-2"
         d="M 98.640486 8.0500014 L 98.640486 15.270705 L 105.85924 15.270705 L 105.85924 8.0500014 L 98.640486 8.0500014 z M 91.38072 15.300001 L 91.38072 22.520705 L 98.59947 22.520705 L 98.59947 15.300001 L 91.38072 15.300001 z M 91.38072 22.540236 L 91.38072 29.760939 L 98.59947 29.760939 L 98.59947 22.540236 L 91.38072 22.540236 z M 127.60924 29.760939 L 127.60924 36.979689 L 134.82994 36.979689 L 134.82994 29.760939 L 127.60924 29.760939 z M 69.669782 29.770705 L 69.669782 36.989455 L 76.890485 36.989455 L 76.890485 29.770705 L 69.669782 29.770705 z M 84.140486 29.770705 L 84.140486 36.989455 L 91.359236 36.989455 L 91.359236 29.770705 L 84.140486 29.770705 z M 76.859235 37.020705 L 76.859235 37.03047 L 69.669782 37.03047 L 69.669782 44.249221 L 76.890485 44.249221 L 76.890485 44.239455 L 84.079939 44.239455 L 84.079939 37.020705 L 76.859235 37.020705 z M 120.41978 37.03047 L 120.41978 44.249221 L 127.64049 44.249221 L 127.64049 37.03047 L 120.41978 37.03047 z M 69.669782 44.280471 L 69.669782 51.499221 L 76.890485 51.499221 L 76.890485 44.280471 L 69.669782 44.280471 z " />
    </g>
  </g>
</svg>
