<?xml version="1.0" encoding="utf-8"?>
<!-- Generator: Adobe Illustrator 26.5.0, SVG Export Plug-In . SVG Version: 6.00 Build 0)  -->
<svg version="1.1" xmlns="http://www.w3.org/2000/svg" xmlns:xlink="http://www.w3.org/1999/xlink" x="0px" y="0px"
	 viewBox="0 0 373.84521 374.69946" style="enable-background:new 0 0 373.84521 374.69946;" xml:space="preserve">
<style type="text/css">
	.st0{fill:#292929;}
	.st1{fill:#ED184A;}
	.st2{fill:#ED2384;}
	.st3{fill:#F171A2;}
	.st4{fill:#64BC46;}
	.st5{fill:#58A345;}
	.st6{fill:#692C81;}
	.st7{fill:#7F3C97;}
	.st8{fill:#EB7D23;}
	.st9{fill:#FCB216;}
	.st10{fill:#F7941D;}
	.st11{fill:#B2D34C;}
	.st12{fill:#FFC709;}
	.st13{fill:#F47E20;}
	.st14{fill:#F15A3B;}
	.st15{fill:#DD3E2B;}
	.st16{fill:#FFD767;}
	.st17{fill:#C61F45;}
	.st18{fill:#FFFFFF;}
	.st19{fill:#151718;}
	.st20{fill:#FFC918;}
	.st21{fill:#DDDDDD;}
	.st22{fill:#BCBCBC;}
	.st23{fill:#4154A3;}
	.st24{fill:#2D4073;}
</style>
<g id="Layer_2">
</g>
<g id="Layer_1">
	<g>
		<polygon class="st18" points="186.92261,16.88391 200.0354,16.88391 213.14819,16.88391 213.14819,3.77112 200.0354,3.77112
			186.92261,3.77112 173.80981,3.77112 160.69702,3.77112 160.69702,16.88391 173.80981,16.88391 		" />
		<polygon class="st18" points="226.26099,29.99664 239.37329,29.99664 252.48657,29.99664 252.48657,16.88391 239.37329,16.88391
			226.26099,16.88391 213.14819,16.88391 213.14819,29.99664 		" />
		<polygon class="st18" points="265.59888,43.10944 278.71167,43.10944 278.71167,29.99664 265.59888,29.99664 252.48657,29.99664
			252.48657,43.10944 		" />
		<rect x="278.71167" y="43.10944" class="st18" width="13.11279" height="13.11273" />
		<rect x="291.82446" y="56.22217" class="st18" width="13.11279" height="13.11273" />
		<rect x="304.93726" y="69.3349" class="st18" width="13.11279" height="13.11279" />
		<rect x="318.05005" y="82.44769" class="st18" width="13.11279" height="13.11273" />
		<polygon class="st18" points="331.16284,121.78595 344.27563,121.78595 344.27563,108.67322 344.27563,95.56042
			331.16284,95.56042 331.16284,108.67322 		" />
		<polygon class="st18" points="344.27563,148.01147 344.27563,161.12421 357.38843,161.12421 357.38843,148.01147
			357.38843,134.89868 357.38843,121.78595 344.27563,121.78595 344.27563,134.89868 		" />
		<rect x="318.05005" y="148.01147" class="st18" width="13.11279" height="13.11273" />
		<rect x="304.93726" y="161.12421" class="st18" width="13.11279" height="13.11279" />
		<rect x="304.93726" y="134.89868" class="st18" width="13.11279" height="13.11279" />
		<rect x="226.26099" y="148.01147" class="st18" width="13.1123" height="13.11273" />
		<polygon class="st18" points="187.17456,121.78595 200.28735,121.78595 200.28735,134.89868 213.40015,134.89868
			226.51294,134.89868 226.51294,121.78595 226.51294,108.67322 226.51294,95.56042 239.62573,95.56042 239.62573,82.44769
			239.62573,69.3349 226.51294,69.3349 213.40015,69.3349 213.40015,82.44769 200.28735,82.44769 187.17456,82.44769
			187.17456,95.56042 174.06177,95.56042 174.06177,108.67322 187.17456,108.67322 		" />
		<polygon class="st18" points="252.73853,226.68799 252.73853,239.80078 239.62573,239.80078 239.62573,226.68799
			226.51294,226.68799 226.51294,239.80078 226.51294,252.91351 239.62573,252.91351 252.73853,252.91351 265.85132,252.91351
			265.85132,239.80078 278.96411,239.80078 278.96411,226.68799 278.96411,213.57526 265.85132,213.57526 265.85132,200.46252
			252.73853,200.46252 252.73853,213.57526 239.62573,213.57526 239.62573,226.68799 		" />
		<path class="st18" d="M318.05005,252.91351v-13.11273h-12.98682h-0.12598h-12.86084h-0.12598h-12.98633v13.11273h-13.11279
			v13.11279h-13.11279h-13.11279h-13.11279v13.11273h-26.22559v13.11279l-39.33838-1.0321v-12.08069h-13.11279v-13.11273h13.11279
			v13.11273h13.11279h13.11279h13.11279v-13.11273h-13.11279v-13.11279h-13.11279v-13.11273h13.11279v13.11273h13.11279v13.11279
			h13.11279h13.11279v-13.11279h-13.11279v-13.11273v-13.11279h13.11279v-13.11273h13.11279v-13.11273h-13.11279v-13.11279
			h-13.11279V174.237v-13.11279v-13.11273h-13.11279v-13.11279h-13.11279v-13.11273h-13.11279v-13.11273h-13.11279h-13.11279
			h-13.11279h-13.1128h-13.1123v13.11273h13.1123v13.11273h-13.1123v-13.11273H95.385v-13.11273H82.20971H69.03393H55.85815
			H42.68237V95.56042H29.56957v13.11279v13.11273H16.45678v13.11273v13.11279v13.11273h13.11279v-13.11273h13.11279v13.11273
			V174.237h13.11279v13.11273h13.1123h13.11279v13.11279h-0.09082H69.03393h-1.59912H55.92113h-0.12598v-13.11279H42.68237v13.11279
			H29.56957v13.11273H16.45678v13.11273v13.11279v13.11273h10.99463h2.11816v13.11279v13.11273h13.11279v-0.00189v0.00189v13.11279
			h13.11279v-0.00189v0.00189v13.11273h13.1123v13.11273h13.11279v13.11279h13.11279v13.11273h13.11279h13.11279v13.11279h13.1128
			h13.11279h13.11279v13.11273h13.11279h13.11279h13.11279h13.11279v-13.11273h13.11279h13.1123h13.11328v-13.11279h13.1123
			h13.11279v-13.11273h13.11279v-13.11273v-0.00006h13.11279v-13.11273l0,0v-0.00006v0.00006h13.11279v-13.11273l0,0v-0.00006
			v0.00006h13.11279v-13.11279h13.11279v-13.11273v-13.11279h-13.11279H318.05005z M121.61059,187.34973h13.1128V174.237h13.11279
			v13.11273h13.11279v13.11279h-13.11279v-13.11279h-13.11279v13.11279h-13.1128V187.34973z M68.90746,161.12421h-13.1123v-13.11273
			v-13.11279H42.68237v-13.11273h13.17578h13.17578h13.17578v13.11273H95.385v13.11279v13.11273V174.237H82.02026v-13.11279
			H68.90746z" />
		<rect x="239.37329" y="134.89868" class="st18" width="13.11328" height="13.11279" />
		<rect x="239.37329" y="161.12421" class="st18" width="13.11328" height="13.11279" />
		<polygon class="st18" points="265.59888,161.12421 265.59888,174.237 265.59888,187.34973 278.71167,187.34973 278.71167,174.237
			278.71167,161.12421 278.71167,148.01147 265.59888,148.01147 		" />
		<polygon class="st18" points="278.71167,134.89868 278.71167,148.01147 291.82446,148.01147 291.82446,134.89868
			291.82446,121.78595 278.71167,121.78595 		" />
		<polygon class="st18" points="344.27563,226.68799 344.27563,239.80078 344.27563,252.91351 357.38843,252.91351
			357.38843,239.80078 357.38843,226.68799 357.38843,213.57526 344.27563,213.57526 		" />
		<polygon class="st18" points="357.38843,161.12421 357.38843,174.237 357.38843,187.34973 357.38843,200.46252
			357.38843,213.57526 370.50122,213.57526 370.50122,200.46252 370.50122,187.34973 370.50122,174.237 370.50122,161.12421 		" />
		<rect x="42.68237" y="82.44769" class="st18" width="13.11279" height="13.11273" />
		<rect x="55.79516" y="69.3349" class="st18" width="13.1123" height="13.11279" />
		<rect x="68.90746" y="56.22217" class="st18" width="13.11279" height="13.11273" />
		<rect x="82.02026" y="43.10944" class="st18" width="13.11279" height="13.11273" />
		<polygon class="st18" points="121.35863,43.10944 121.35863,29.99664 108.24584,29.99664 95.13305,29.99664 95.13305,43.10944
			108.24584,43.10944 		" />
		<polygon class="st18" points="147.58423,29.99664 160.69702,29.99664 160.69702,16.88391 147.58423,16.88391 134.47144,16.88391
			121.35863,16.88391 121.35863,29.99664 134.47144,29.99664 		" />
		<polygon class="st18" points="16.45678,187.34973 16.45678,174.237 16.45678,161.12421 3.34399,161.12421 3.34399,174.237
			3.34399,187.34973 3.34399,200.46252 3.34399,213.57526 16.45678,213.57526 16.45678,200.46252 		" />
	</g>
</g>
</svg>
