<?xml version="1.0" encoding="UTF-8"?><svg id="Layer_1" xmlns="http://www.w3.org/2000/svg" viewBox="0 0 315.54 145.3"><defs><style>.cls-1{fill:#f3901d;}.cls-2{fill:#ed5a3b;}.cls-3{fill:#64b846;}.cls-4{fill:#40c9ed;}.cls-5{fill:#589f45;}.cls-6{fill:#29b4e8;}</style></defs><g><rect class="cls-4" x="67.71" y="11.03" width="9.48" height="9.48"/><rect class="cls-4" x="58.23" y="20.51" width="9.48" height="9.48"/><rect class="cls-4" x="58.23" y="29.99" width="9.48" height="9.48"/><rect class="cls-4" x="48.76" y="39.47" width="9.48" height="9.48"/><rect class="cls-4" x="48.76" y="48.95" width="9.48" height="9.48"/><rect class="cls-4" x="39.28" y="58.43" width="9.48" height="9.48"/><rect class="cls-4" x="39.28" y="67.91" width="9.48" height="9.48"/><rect class="cls-4" x="29.8" y="77.39" width="9.48" height="9.48"/><rect class="cls-4" x="29.8" y="86.87" width="9.48" height="9.48"/><rect class="cls-6" x="20.32" y="96.35" width="9.48" height="9.48"/><rect class="cls-6" x="20.32" y="105.83" width="9.48" height="9.48"/><rect class="cls-6" x="10.84" y="115.31" width="9.48" height="9.48"/><rect class="cls-6" x="10.84" y="124.78" width="9.48" height="9.48"/><rect class="cls-6" x="1.36" y="134.26" width="9.48" height="9.48"/><rect class="cls-6" x="10.84" y="134.26" width="9.48" height="9.48"/><rect class="cls-6" x="20.32" y="115.31" width="9.48" height="9.48"/><rect class="cls-6" x="20.32" y="124.78" width="9.48" height="9.48"/><rect class="cls-6" x="20.32" y="134.26" width="9.48" height="9.48"/><rect class="cls-6" x="29.8" y="96.35" width="9.48" height="9.48"/><rect class="cls-6" x="29.8" y="105.83" width="9.48" height="9.48"/><rect class="cls-6" x="29.8" y="115.31" width="9.48" height="9.48"/><rect class="cls-6" x="29.8" y="124.78" width="9.48" height="9.48"/><rect class="cls-6" x="29.8" y="134.26" width="9.48" height="9.48"/><rect class="cls-4" x="39.28" y="77.39" width="9.48" height="9.48"/><rect class="cls-4" x="39.28" y="86.87" width="9.48" height="9.48"/><rect class="cls-4" x="39.28" y="96.35" width="9.48" height="9.48"/><rect class="cls-6" x="39.28" y="105.83" width="9.48" height="9.48"/><rect class="cls-6" x="39.28" y="115.31" width="9.48" height="9.48"/><rect class="cls-6" x="39.28" y="124.78" width="9.48" height="9.48"/><rect class="cls-6" x="39.28" y="134.26" width="9.48" height="9.48"/><rect class="cls-4" x="48.76" y="58.43" width="9.48" height="9.48"/><rect class="cls-4" x="48.76" y="67.91" width="9.48" height="9.48"/><rect class="cls-4" x="48.76" y="77.39" width="9.48" height="9.48"/><rect class="cls-4" x="48.76" y="86.87" width="9.48" height="9.48"/><rect class="cls-6" x="48.76" y="115.31" width="9.48" height="9.48"/><rect class="cls-6" x="48.76" y="124.78" width="9.48" height="9.48"/><rect class="cls-4" x="58.23" y="39.47" width="9.48" height="9.48"/><rect class="cls-4" x="58.23" y="48.95" width="9.48" height="9.48"/><rect class="cls-4" x="58.23" y="58.43" width="9.48" height="9.48"/><rect class="cls-4" x="58.23" y="67.91" width="9.48" height="9.48"/><rect class="cls-4" x="58.23" y="77.39" width="9.48" height="9.48"/><rect class="cls-4" x="58.23" y="105.83" width="9.48" height="9.48"/><rect class="cls-4" x="58.23" y="124.78" width="9.48" height="9.48"/><rect class="cls-4" x="67.71" y="20.51" width="9.48" height="9.48"/><rect class="cls-4" x="67.71" y="29.99" width="9.48" height="9.48"/><rect class="cls-4" x="67.71" y="39.47" width="9.48" height="9.48"/><rect class="cls-4" x="67.71" y="48.95" width="9.48" height="9.48"/><rect class="cls-4" x="67.71" y="58.43" width="9.48" height="9.48"/><rect class="cls-4" x="67.71" y="67.91" width="9.48" height="9.48"/><rect class="cls-4" x="67.71" y="77.39" width="9.48" height="9.48"/><rect class="cls-4" x="67.71" y="105.83" width="9.48" height="9.48"/><rect class="cls-4" x="67.71" y="115.31" width="9.48" height="9.48"/><rect class="cls-4" x="77.19" y="20.51" width="9.48" height="9.48"/><rect class="cls-4" x="77.19" y="29.99" width="9.48" height="9.48"/><rect class="cls-4" x="77.19" y="39.47" width="9.48" height="9.48"/><rect class="cls-4" x="77.19" y="77.39" width="9.48" height="9.48"/><rect class="cls-4" x="77.19" y="105.83" width="9.48" height="9.48"/><rect class="cls-4" x="77.19" y="115.31" width="9.48" height="9.48"/><rect class="cls-4" x="86.67" y="105.83" width="9.48" height="9.48"/><rect class="cls-4" x="86.67" y="115.31" width="9.48" height="9.48"/><rect class="cls-4" x="86.67" y="124.78" width="9.48" height="9.48"/><rect class="cls-4" x="96.15" y="96.35" width="9.48" height="9.48"/><rect class="cls-4" x="96.15" y="105.83" width="9.48" height="9.48"/><rect class="cls-4" x="96.15" y="115.31" width="9.48" height="9.48"/><rect class="cls-4" x="96.15" y="124.78" width="9.48" height="9.48"/><g><rect class="cls-6" x="77.19" y="48.95" width="9.48" height="9.48"/><rect class="cls-6" x="77.19" y="58.43" width="9.48" height="9.48"/><rect class="cls-6" x="77.19" y="67.91" width="9.48" height="9.48"/><rect class="cls-6" x="86.67" y="39.47" width="9.48" height="9.48"/><rect class="cls-6" x="86.67" y="48.95" width="9.48" height="9.48"/><rect class="cls-6" x="86.67" y="58.43" width="9.48" height="9.48"/><rect class="cls-6" x="86.67" y="67.91" width="9.48" height="9.48"/><rect class="cls-6" x="86.67" y="77.39" width="9.48" height="9.48"/><rect class="cls-6" x="96.15" y="58.43" width="9.48" height="9.48"/><rect class="cls-6" x="96.15" y="67.91" width="9.48" height="9.48"/><rect class="cls-6" x="96.15" y="77.39" width="9.48" height="9.48"/><rect class="cls-6" x="105.63" y="77.39" width="9.48" height="9.48"/><rect class="cls-6" x="105.63" y="86.87" width="9.48" height="9.48"/></g><rect class="cls-4" x="105.63" y="96.35" width="9.48" height="9.48"/><rect class="cls-4" x="105.63" y="105.83" width="9.48" height="9.48"/><rect class="cls-4" x="105.63" y="115.31" width="9.48" height="9.48"/><rect class="cls-4" x="105.63" y="124.78" width="9.48" height="9.48"/><rect class="cls-4" x="105.63" y="134.26" width="9.48" height="9.48"/><rect class="cls-4" x="96.15" y="134.26" width="9.48" height="9.48"/><rect class="cls-4" x="115.11" y="96.35" width="9.48" height="9.48"/><rect class="cls-4" x="115.11" y="105.83" width="9.48" height="9.48"/><rect class="cls-4" x="115.11" y="115.31" width="9.48" height="9.48"/><rect class="cls-4" x="115.11" y="124.78" width="9.48" height="9.48"/><rect class="cls-4" x="115.11" y="134.26" width="9.48" height="9.48"/><rect class="cls-4" x="124.59" y="115.31" width="9.48" height="9.48"/><rect class="cls-4" x="124.59" y="124.78" width="9.48" height="9.48"/><rect class="cls-4" x="124.59" y="134.26" width="9.48" height="9.48"/><rect class="cls-4" x="134.07" y="134.26" width="9.48" height="9.48"/></g><g><rect class="cls-1" x="238.34" y="11.03" width="9.48" height="9.48"/><rect class="cls-1" x="228.86" y="20.51" width="9.48" height="9.48"/><rect class="cls-1" x="228.86" y="29.99" width="9.48" height="9.48"/><rect class="cls-2" x="219.39" y="39.47" width="9.48" height="9.48"/><rect class="cls-2" x="219.39" y="48.95" width="9.48" height="9.48"/><rect class="cls-2" x="209.91" y="58.43" width="9.48" height="9.48"/><rect class="cls-2" x="209.91" y="67.91" width="9.48" height="9.48"/><rect class="cls-2" x="200.43" y="77.39" width="9.48" height="9.48"/><rect class="cls-2" x="200.43" y="86.87" width="9.48" height="9.48"/><rect class="cls-1" x="190.95" y="96.35" width="9.48" height="9.48"/><rect class="cls-1" x="190.95" y="105.83" width="9.48" height="9.48"/><rect class="cls-1" x="181.47" y="115.31" width="9.48" height="9.48"/><rect class="cls-1" x="181.47" y="124.78" width="9.48" height="9.48"/><rect class="cls-1" x="171.99" y="134.26" width="9.48" height="9.48"/><rect class="cls-1" x="181.47" y="134.26" width="9.48" height="9.48"/><rect class="cls-1" x="190.95" y="115.31" width="9.48" height="9.48"/><rect class="cls-1" x="190.95" y="124.78" width="9.48" height="9.48"/><rect class="cls-1" x="190.95" y="134.26" width="9.48" height="9.48"/><rect class="cls-1" x="200.43" y="96.35" width="9.48" height="9.48"/><rect class="cls-1" x="200.43" y="105.83" width="9.48" height="9.48"/><rect class="cls-1" x="200.43" y="115.31" width="9.48" height="9.48"/><rect class="cls-1" x="200.43" y="124.78" width="9.48" height="9.48"/><rect class="cls-1" x="200.43" y="134.26" width="9.48" height="9.48"/><rect class="cls-2" x="209.91" y="77.39" width="9.48" height="9.48"/><rect class="cls-2" x="209.91" y="86.87" width="9.48" height="9.48"/><rect class="cls-1" x="209.91" y="96.35" width="9.48" height="9.48"/><rect class="cls-1" x="209.91" y="105.83" width="9.48" height="9.48"/><rect class="cls-1" x="209.91" y="115.31" width="9.48" height="9.48"/><rect class="cls-1" x="209.91" y="124.78" width="9.48" height="9.48"/><rect class="cls-1" x="209.91" y="134.26" width="9.48" height="9.48"/><rect class="cls-2" x="219.39" y="58.43" width="9.48" height="9.48"/><rect class="cls-2" x="219.39" y="67.91" width="9.48" height="9.48"/><rect class="cls-2" x="219.39" y="77.39" width="9.48" height="9.48"/><rect class="cls-1" x="219.39" y="96.35" width="9.48" height="9.48"/><rect class="cls-1" x="219.39" y="105.83" width="9.48" height="9.48"/><rect class="cls-1" x="219.39" y="115.31" width="9.48" height="9.48"/><rect class="cls-1" x="219.39" y="124.78" width="9.48" height="9.48"/><rect class="cls-1" x="228.86" y="39.47" width="9.48" height="9.48"/><rect class="cls-2" x="228.86" y="48.95" width="9.48" height="9.48"/><rect class="cls-2" x="228.86" y="58.43" width="9.48" height="9.48"/><rect class="cls-2" x="228.86" y="67.91" width="9.48" height="9.48"/><rect class="cls-1" x="228.86" y="77.39" width="9.48" height="9.48"/><rect class="cls-1" x="228.86" y="124.78" width="9.48" height="9.48"/><rect class="cls-1" x="238.34" y="20.51" width="9.48" height="9.48"/><rect class="cls-1" x="238.34" y="29.99" width="9.48" height="9.48"/><rect class="cls-1" x="238.34" y="39.47" width="9.48" height="9.48"/><rect class="cls-1" x="238.34" y="48.95" width="9.48" height="9.48"/><rect class="cls-1" x="238.34" y="58.43" width="9.48" height="9.48"/><rect class="cls-1" x="238.34" y="67.91" width="9.48" height="9.48"/><rect class="cls-1" x="238.34" y="77.39" width="9.48" height="9.48"/><rect class="cls-1" x="238.34" y="86.87" width="9.48" height="9.48"/><rect class="cls-1" x="247.82" y="20.51" width="9.48" height="9.48"/><rect class="cls-1" x="247.82" y="29.99" width="9.48" height="9.48"/><rect class="cls-1" x="247.82" y="39.47" width="9.48" height="9.48"/><rect class="cls-1" x="247.82" y="48.95" width="9.48" height="9.48"/><rect class="cls-1" x="247.82" y="58.43" width="9.48" height="9.48"/><rect class="cls-1" x="247.82" y="67.91" width="9.48" height="9.48"/><rect class="cls-1" x="247.82" y="77.39" width="9.48" height="9.48"/><rect class="cls-1" x="247.82" y="86.87" width="9.48" height="9.48"/><rect class="cls-1" x="247.82" y="96.35" width="9.48" height="9.48"/><rect class="cls-1" x="257.3" y="39.47" width="9.48" height="9.48"/><rect class="cls-1" x="257.3" y="48.95" width="9.48" height="9.48"/><rect class="cls-1" x="257.3" y="58.43" width="9.48" height="9.48"/><rect class="cls-1" x="257.3" y="67.91" width="9.48" height="9.48"/><rect class="cls-1" x="257.3" y="77.39" width="9.48" height="9.48"/><rect class="cls-1" x="257.3" y="86.87" width="9.48" height="9.48"/><rect class="cls-2" x="257.3" y="124.78" width="9.48" height="9.48"/><rect class="cls-1" x="266.78" y="58.43" width="9.48" height="9.48"/><rect class="cls-1" x="266.78" y="67.91" width="9.48" height="9.48"/><rect class="cls-1" x="266.78" y="77.39" width="9.48" height="9.48"/><rect class="cls-2" x="266.78" y="115.31" width="9.48" height="9.48"/><rect class="cls-2" x="266.78" y="124.78" width="9.48" height="9.48"/><rect class="cls-1" x="276.26" y="77.39" width="9.48" height="9.48"/><rect class="cls-1" x="276.26" y="86.87" width="9.48" height="9.48"/><rect class="cls-1" x="276.26" y="96.35" width="9.48" height="9.48"/><rect class="cls-2" x="276.26" y="105.83" width="9.48" height="9.48"/><rect class="cls-2" x="276.26" y="115.31" width="9.48" height="9.48"/><rect class="cls-2" x="276.26" y="124.78" width="9.48" height="9.48"/><rect class="cls-2" x="276.26" y="134.26" width="9.48" height="9.48"/><rect class="cls-2" x="266.78" y="134.26" width="9.48" height="9.48"/><rect class="cls-2" x="285.74" y="96.35" width="9.48" height="9.48"/><rect class="cls-2" x="285.74" y="105.83" width="9.48" height="9.48"/><rect class="cls-2" x="285.74" y="115.31" width="9.48" height="9.48"/><rect class="cls-2" x="285.74" y="124.78" width="9.48" height="9.48"/><rect class="cls-2" x="285.74" y="134.26" width="9.48" height="9.48"/><rect class="cls-2" x="295.22" y="115.31" width="9.48" height="9.48"/><rect class="cls-2" x="295.22" y="124.78" width="9.48" height="9.48"/><rect class="cls-2" x="295.22" y="134.26" width="9.48" height="9.48"/><rect class="cls-2" x="304.7" y="134.26" width="9.48" height="9.48"/></g><g><rect class="cls-3" x="171.99" y="86.87" width="9.48" height="9.48" transform="translate(353.46 183.21) rotate(180)"/><rect class="cls-3" x="181.47" y="77.39" width="9.48" height="9.48" transform="translate(372.41 164.25) rotate(180)"/><rect class="cls-3" x="181.47" y="67.91" width="9.48" height="9.48" transform="translate(372.41 145.3) rotate(180)"/><rect class="cls-3" x="190.95" y="58.43" width="9.48" height="9.48" transform="translate(391.37 126.34) rotate(180)"/><rect class="cls-3" x="190.95" y="48.95" width="9.48" height="9.48" transform="translate(391.37 107.38) rotate(180)"/><rect class="cls-3" x="200.43" y="39.47" width="9.48" height="9.48" transform="translate(410.33 88.42) rotate(180)"/><rect class="cls-3" x="200.43" y="29.99" width="9.48" height="9.48" transform="translate(410.33 69.46) rotate(180)"/><rect class="cls-3" x="209.91" y="20.51" width="9.48" height="9.48" transform="translate(429.29 50.5) rotate(180)"/><rect class="cls-3" x="209.91" y="11.03" width="9.48" height="9.48" transform="translate(429.29 31.54) rotate(180)"/><rect class="cls-3" x="219.39" y="1.55" width="9.48" height="9.48" transform="translate(448.25 12.58) rotate(180)"/><rect class="cls-3" x="209.91" y="1.55" width="9.48" height="9.48" transform="translate(429.29 12.58) rotate(180)"/><rect class="cls-3" x="200.43" y="20.51" width="9.48" height="9.48" transform="translate(410.33 50.5) rotate(180)"/><rect class="cls-3" x="200.43" y="11.03" width="9.48" height="9.48" transform="translate(410.33 31.54) rotate(180)"/><rect class="cls-3" x="200.43" y="1.55" width="9.48" height="9.48" transform="translate(410.33 12.58) rotate(180)"/><rect class="cls-3" x="190.95" y="39.47" width="9.48" height="9.48" transform="translate(391.37 88.42) rotate(180)"/><rect class="cls-3" x="190.95" y="29.99" width="9.48" height="9.48" transform="translate(391.37 69.46) rotate(180)"/><rect class="cls-3" x="190.95" y="20.51" width="9.48" height="9.48" transform="translate(391.37 50.5) rotate(180)"/><rect class="cls-3" x="190.95" y="11.03" width="9.48" height="9.48" transform="translate(391.37 31.54) rotate(180)"/><rect class="cls-3" x="190.95" y="1.55" width="9.48" height="9.48" transform="translate(391.37 12.58) rotate(180)"/><rect class="cls-3" x="181.47" y="58.43" width="9.48" height="9.48" transform="translate(372.41 126.34) rotate(180)"/><rect class="cls-3" x="181.47" y="48.95" width="9.48" height="9.48" transform="translate(372.41 107.38) rotate(180)"/><rect class="cls-3" x="181.47" y="39.47" width="9.48" height="9.48" transform="translate(372.41 88.42) rotate(180)"/><rect class="cls-3" x="181.47" y="29.99" width="9.48" height="9.48" transform="translate(372.41 69.46) rotate(180)"/><rect class="cls-3" x="181.47" y="20.51" width="9.48" height="9.48" transform="translate(372.41 50.5) rotate(180)"/><rect class="cls-3" x="181.47" y="11.03" width="9.48" height="9.48" transform="translate(372.41 31.54) rotate(180)"/><rect class="cls-3" x="181.47" y="1.55" width="9.48" height="9.48" transform="translate(372.41 12.58) rotate(180)"/><rect class="cls-3" x="171.99" y="77.39" width="9.48" height="9.48" transform="translate(353.46 164.25) rotate(180)"/><rect class="cls-3" x="171.99" y="67.91" width="9.48" height="9.48" transform="translate(353.46 145.3) rotate(180)"/><rect class="cls-3" x="171.99" y="58.43" width="9.48" height="9.48" transform="translate(353.46 126.34) rotate(180)"/><rect class="cls-3" x="171.99" y="48.95" width="9.48" height="9.48" transform="translate(353.46 107.38) rotate(180)"/><rect class="cls-3" x="171.99" y="39.47" width="9.48" height="9.48" transform="translate(353.46 88.42) rotate(180)"/><rect class="cls-3" x="171.99" y="29.99" width="9.48" height="9.48" transform="translate(353.46 69.46) rotate(180)"/><rect class="cls-3" x="171.99" y="20.51" width="9.48" height="9.48" transform="translate(353.46 50.5) rotate(180)"/><rect class="cls-3" x="171.99" y="11.03" width="9.48" height="9.48" transform="translate(353.46 31.54) rotate(180)"/><rect class="cls-3" x="162.51" y="86.87" width="9.48" height="9.48" transform="translate(334.5 183.21) rotate(180)"/><rect class="cls-3" x="162.51" y="77.39" width="9.48" height="9.48" transform="translate(334.5 164.25) rotate(180)"/><rect class="cls-3" x="162.51" y="29.99" width="9.48" height="9.48" transform="translate(334.5 69.46) rotate(180)"/><rect class="cls-3" x="162.51" y="20.51" width="9.48" height="9.48" transform="translate(334.5 50.5) rotate(180)"/><rect class="cls-3" x="162.51" y="11.03" width="9.48" height="9.48" transform="translate(334.5 31.54) rotate(180)"/><rect class="cls-3" x="153.03" y="96.35" width="9.48" height="9.48" transform="translate(315.54 202.17) rotate(180)"/><rect class="cls-3" x="153.03" y="86.87" width="9.48" height="9.48" transform="translate(315.54 183.21) rotate(180)"/><rect class="cls-3" x="153.03" y="48.95" width="9.48" height="9.48" transform="translate(315.54 107.38) rotate(180)"/><rect class="cls-3" x="153.03" y="39.47" width="9.48" height="9.48" transform="translate(315.54 88.42) rotate(180)"/><g><rect class="cls-5" x="153.03" y="124.78" width="9.48" height="9.48" transform="translate(315.54 259.05) rotate(180)"/><rect class="cls-5" x="162.51" y="115.31" width="9.48" height="9.48" transform="translate(334.5 240.09) rotate(180)"/><rect class="cls-5" x="162.51" y="105.83" width="9.48" height="9.48" transform="translate(334.5 221.13) rotate(180)"/><rect class="cls-5" x="171.99" y="96.35" width="9.48" height="9.48" transform="translate(353.46 202.17) rotate(180)"/><rect class="cls-5" x="162.51" y="96.35" width="9.48" height="9.48" transform="translate(334.5 202.17) rotate(180)"/><rect class="cls-5" x="153.03" y="115.31" width="9.48" height="9.48" transform="translate(315.54 240.09) rotate(180)"/><rect class="cls-5" x="153.03" y="105.83" width="9.48" height="9.48" transform="translate(315.54 221.13) rotate(180)"/><rect class="cls-5" x="143.55" y="115.31" width="9.48" height="9.48" transform="translate(296.58 240.09) rotate(180)"/></g><rect class="cls-3" x="143.55" y="105.83" width="9.48" height="9.48" transform="translate(296.58 221.13) rotate(180)"/><rect class="cls-3" x="143.55" y="96.35" width="9.48" height="9.48" transform="translate(296.58 202.17) rotate(180)"/><rect class="cls-3" x="143.55" y="86.87" width="9.48" height="9.48" transform="translate(296.58 183.21) rotate(180)"/><rect class="cls-3" x="143.55" y="77.39" width="9.48" height="9.48" transform="translate(296.58 164.25) rotate(180)"/><rect class="cls-3" x="143.55" y="67.91" width="9.48" height="9.48" transform="translate(296.58 145.3) rotate(180)"/><rect class="cls-3" x="143.55" y="29.99" width="9.48" height="9.48" transform="translate(296.58 69.46) rotate(180)"/><rect class="cls-3" x="143.55" y="20.51" width="9.48" height="9.48" transform="translate(296.58 50.5) rotate(180)"/><rect class="cls-3" x="134.07" y="96.35" width="9.48" height="9.48" transform="translate(277.62 202.17) rotate(180)"/><rect class="cls-3" x="134.07" y="86.87" width="9.48" height="9.48" transform="translate(277.62 183.21) rotate(180)"/><rect class="cls-3" x="134.07" y="77.39" width="9.48" height="9.48" transform="translate(277.62 164.25) rotate(180)"/><rect class="cls-3" x="134.07" y="67.91" width="9.48" height="9.48" transform="translate(277.62 145.3) rotate(180)"/><rect class="cls-3" x="134.07" y="58.43" width="9.48" height="9.48" transform="translate(277.62 126.34) rotate(180)"/><rect class="cls-3" x="134.07" y="48.95" width="9.48" height="9.48" transform="translate(277.62 107.38) rotate(180)"/><rect class="cls-3" x="134.07" y="39.47" width="9.48" height="9.48" transform="translate(277.62 88.42) rotate(180)"/><rect class="cls-3" x="134.07" y="29.99" width="9.48" height="9.48" transform="translate(277.62 69.46) rotate(180)"/><rect class="cls-3" x="124.59" y="77.39" width="9.48" height="9.48" transform="translate(258.66 164.25) rotate(180)"/><rect class="cls-3" x="124.59" y="67.91" width="9.48" height="9.48" transform="translate(258.66 145.3) rotate(180)"/><rect class="cls-3" x="124.59" y="58.43" width="9.48" height="9.48" transform="translate(258.66 126.34) rotate(180)"/><rect class="cls-3" x="124.59" y="48.95" width="9.48" height="9.48" transform="translate(258.66 107.38) rotate(180)"/><rect class="cls-3" x="124.59" y="39.47" width="9.48" height="9.48" transform="translate(258.66 88.42) rotate(180)"/><rect class="cls-3" x="115.11" y="58.43" width="9.48" height="9.48" transform="translate(239.7 126.34) rotate(180)"/><rect class="cls-3" x="115.11" y="48.95" width="9.48" height="9.48" transform="translate(239.7 107.38) rotate(180)"/><rect class="cls-3" x="115.11" y="39.47" width="9.48" height="9.48" transform="translate(239.7 88.42) rotate(180)"/><rect class="cls-3" x="105.63" y="39.47" width="9.48" height="9.48" transform="translate(220.74 88.42) rotate(180)"/><g><rect class="cls-5" x="143.55" y="11.03" width="9.48" height="9.48" transform="translate(296.58 31.54) rotate(180)"/><rect class="cls-5" x="134.07" y="20.51" width="9.48" height="9.48" transform="translate(277.62 50.5) rotate(180)"/><rect class="cls-5" x="134.07" y="11.03" width="9.48" height="9.48" transform="translate(277.62 31.54) rotate(180)"/><rect class="cls-5" x="124.59" y="29.99" width="9.48" height="9.48" transform="translate(258.66 69.46) rotate(180)"/><rect class="cls-5" x="124.59" y="20.51" width="9.48" height="9.48" transform="translate(258.66 50.5) rotate(180)"/><rect class="cls-5" x="124.59" y="11.03" width="9.48" height="9.48" transform="translate(258.66 31.54) rotate(180)"/><rect class="cls-5" x="115.11" y="29.99" width="9.48" height="9.48" transform="translate(239.7 69.46) rotate(180)"/><rect class="cls-5" x="115.11" y="20.51" width="9.48" height="9.48" transform="translate(239.7 50.5) rotate(180)"/><rect class="cls-5" x="115.11" y="11.03" width="9.48" height="9.48" transform="translate(239.7 31.54) rotate(180)"/><rect class="cls-5" x="115.11" y="1.55" width="9.48" height="9.48" transform="translate(239.7 12.58) rotate(180)"/><rect class="cls-5" x="124.59" y="1.55" width="9.48" height="9.48" transform="translate(258.66 12.58) rotate(180)"/><rect class="cls-5" x="105.63" y="29.99" width="9.48" height="9.48" transform="translate(220.74 69.46) rotate(180)"/><rect class="cls-5" x="105.63" y="20.51" width="9.48" height="9.48" transform="translate(220.74 50.5) rotate(180)"/><rect class="cls-5" x="105.63" y="11.03" width="9.48" height="9.48" transform="translate(220.74 31.54) rotate(180)"/><rect class="cls-5" x="105.63" y="1.55" width="9.48" height="9.48" transform="translate(220.74 12.58) rotate(180)"/><rect class="cls-5" x="96.15" y="20.51" width="9.48" height="9.48" transform="translate(201.78 50.5) rotate(180)"/><rect class="cls-5" x="96.15" y="11.03" width="9.48" height="9.48" transform="translate(201.78 31.54) rotate(180)"/><rect class="cls-5" x="96.15" y="1.55" width="9.48" height="9.48" transform="translate(201.78 12.58) rotate(180)"/><rect class="cls-5" x="86.67" y="1.55" width="9.48" height="9.48" transform="translate(182.83 12.58) rotate(180)"/></g></g></svg>